<svg width="103" height="41" viewBox="0 0 103 41" fill="none" xmlns="http://www.w3.org/2000/svg">
<path fill-rule="evenodd" clip-rule="evenodd" d="M6.52734 9.68995C5.0045 11.6068 3.64904 13.7641 2.59067 16.1104V16.1104C1.52924 18.4538 0.72857 20.9696 0.305438 23.5833V23.5833C-1.72635 37.9246 6.9885 40.2057 8.47416 40.485V40.485C16.1128 41.3765 21.7383 37.213 24.397 34.6594V34.6594C25.356 39.4458 30.1345 39.5039 32.2299 37.3423V37.3423C32.7648 36.7906 33.1924 36.1133 33.5256 35.4077V35.4077C34.7682 39.9322 38.7482 38.3915 39.2162 38.1907V38.1907C41.4355 37.3582 43.7556 34.2639 45.3957 31.6692V31.6692C46.4381 35.2275 48.4503 39.0411 52.3158 38.6323V38.6323C54.645 38.576 60.485 32.3592 61.025 33.17V33.17C61.5644 33.8414 61.7072 35.0731 61.672 36.912V36.912C61.6366 38.751 63.0943 38.8435 63.7554 38.6605V38.6605C64.7749 38.3784 65.4169 36.3639 66.4851 34.6134V34.6134C67.3227 33.2412 67.9465 32.4638 68.7774 31.5496V31.5496C69.1963 31.0984 71.0925 29.1332 72.4298 29.8003V29.8003C73.7671 30.4676 73.9041 31.8389 73.9963 32.5969V32.5969C74.0992 33.3576 74.1 34.1643 74.1322 35.0464V35.0464C74.0931 38.0917 75.5217 38.5215 75.9248 38.6337V38.6337C79.2297 39.5277 79.4346 33.305 81.859 30.9952V30.9952C82.086 30.7597 84.2041 28.5697 85.4141 32.1433V32.1433C87.1614 38.6017 92.5383 41.016 99.7765 37.4253V37.4253C101.119 36.759 101.383 36.4978 102.116 35.9521V35.9521C102.297 35.8174 102.398 35.6068 102.4 35.39V35.39V35.3804C102.399 35.2659 102.371 35.15 102.311 35.0428V35.0428C102.123 34.7019 101.694 34.5788 101.353 34.7679V34.7679L101.35 34.7698C100.609 35.1812 98.1444 36.0054 97.3651 36.2862V36.2862C94.4436 36.764 90.8662 36.6565 89.1041 32.3825V32.3825C88.5729 31.0945 88.0474 29.935 87.1395 28.7156V28.7156C86.1133 27.3375 82.7515 25.6975 79.6125 28.6555V28.6555C78.797 29.4035 78.1951 30.2319 77.673 31.0574V31.0574C77.4601 31.3948 77.2633 31.7344 77.0776 32.0741V32.0741C77.0654 32.0291 77.0539 31.9841 77.0414 31.939V31.939C76.7643 30.9823 75.8768 27.4439 72.1866 26.8685V26.8685C71.68 26.8274 69.6265 26.5961 66.786 29.7168V29.7168C65.7934 30.7992 64.9674 31.951 64.1972 33.1161V33.1161C64.1962 33.1176 64.1954 33.1193 64.1945 33.1208V33.1208C64.0592 32.4872 63.8954 31.911 63.7324 31.658V31.658C61.3187 27.9386 57.6632 30.9079 56.0888 32.0164V32.0164C52.5608 34.5007 50.9248 37.8401 48.7747 30.2541V30.2541C48.4969 29.1978 48.2772 28.1044 48.107 26.9936V26.9936C50.2502 23.3468 54.6131 12.2511 52.109 4.81196V4.81196C51.946 4.34192 51.0737 1.94041 48.978 2.0949V2.0949C48.6767 2.12457 46.289 1.87374 44.9845 8.55642V8.55642C43.7626 15.0166 44.0327 23.343 44.3288 26.1038V26.1038C44.3622 26.3898 44.4245 26.9553 44.5362 27.694V27.694C42.4705 31.2346 39.7576 35.2598 38.1048 35.4475V35.4475C35.9571 35.6914 36.5554 33.7089 35.2448 29.3045V29.3045C35.0189 28.7335 34.2953 26.0109 31.0361 26.1462V26.1462C29.4429 26.2124 27.7551 26.6278 25.4512 29.1518V29.1518C21.7111 33.2497 13.1792 39.414 7.07737 35.5401V35.5401C6.41433 35.0249 3.11754 32.3256 4.33195 24.2368V24.2368C4.69182 22.0194 5.37278 19.8289 6.28926 17.7846V17.7846C7.20793 15.7401 8.34128 13.8267 9.64067 12.1325V12.1325C15.9094 4.42068 21.3389 3.52005 22.4104 3.56608V3.56608C25.1582 3.56706 25.8719 7.12944 25.8699 7.09659V7.09659C25.9307 7.72234 26.4864 8.18017 27.111 8.11923V8.11923C27.7356 8.05829 28.1926 7.50167 28.1317 6.87592V6.87592C28.1269 6.84454 28.1372 5.7115 27.6672 4.6355V4.6355C27.2367 3.23392 25.9977 1.93162 25.2764 1.45144V1.45144C24.3874 0.831191 23.2093 0.500122 21.8215 0.5V0.5C17.8338 0.5 12.1128 3.23257 6.52734 9.68995M47.6002 20.9439C47.571 8.38509 49.165 5.53467 49.2825 5.75314V5.75314C49.89 6.88239 51.2 13.9531 47.6262 21.6837V21.6837C47.6165 21.4372 47.6076 21.1908 47.6002 20.9439M26.9245 33.2842C26.9707 29.9605 31.1026 27.8719 32.2118 30.1846V30.1846C32.303 30.3746 32.364 30.5874 32.4233 30.798V30.798C32.2312 31.4094 32.1537 32.3945 31.5044 33.7327V33.7327C30.819 35.1455 29.7419 35.847 28.8045 35.847V35.847C27.7672 35.847 26.9007 34.9882 26.9245 33.2842" fill="url(#paint0_linear_862_2559)"/>
<defs>
<linearGradient id="paint0_linear_862_2559" x1="0" y1="0.5" x2="0" y2="40.6079" gradientUnits="userSpaceOnUse">
<stop stop-color="#60B4E7"/>
<stop offset="1" stop-color="#6461E0"/>
</linearGradient>
</defs>
</svg>
